<svg version="1.2" xmlns="http://www.w3.org/2000/svg" viewBox="0 0 300 165" width="300" height="165">
	<title>md-icone-marca-oficial</title>
	<style>
		.s0 { fill: #ffffff } 
	</style>
	<path fill-rule="evenodd" class="s0" d="m152 0c7.1 0 12.8 5.7 12.8 12.7v55.1l46.5-62.5 0.2-0.3c2.3-3 6-5 10.2-5h18.5q3.3 0 6.6 0.4c29.7 3.2 52.8 28.4 53 58.9 0.1 32.9-27.5 59.8-60.4 59.8h-17.7c-6.9 0-12.5-5.4-12.8-12.1q0-0.3 0-0.6 0-0.1 0-0.2v-54.9l-46.6 62.6q0 0.1-0.1 0.2c-2.3 3.1-6 5-10.2 5-6.8 0-12.4-5.4-12.7-12.1v-0.8q0-0.1 0-0.1v-54.8l-46.5 62.4c0 0.1-0.1 0.1-0.1 0.1l-0.2 0.3q0 0.1 0 0.1c-2.3 3-6 4.9-10.1 4.9-6.9 0-12.5-5.4-12.8-12.1v-0.1q0-0.3 0-0.5 0-0.3 0-0.6v-54.5l-46.4 62.4c0 0.1-0.1 0.1-0.1 0.1l-0.2 0.3q0 0.1 0 0.1c-2.3 3-6 4.9-10.1 4.9-7.1 0-12.8-5.7-12.8-12.7 0-2.8 0.9-5.4 2.4-7.5l69.7-93.7 0.2-0.2c2.3-3 6-5 10.1-5 7 0 12.7 5.7 12.8 12.7v55.1l46.5-62.5 0.2-0.3c2.3-3 6-5 10.1-5zm122.8 59.6c0-9.6-3.9-18.2-10.2-24.5-6.2-6.3-14.9-10.1-24.4-10.1h-5.8v69.2h5.8c19.1 0 34.6-15.5 34.6-34.6zm-258.1 86.7q2.3-3.4 6.5-3.4 8.1 0 8.1 9.2v12.2h-3.2v-12.4q0-6.1-4.8-6.1c-3.5 0-5.4 2.5-5.4 7v11.5h-3.2v-12.2q0-6.3-4.7-6.3c-3.6 0-5.5 2.6-5.5 7v11.5h-3.2v-20.9h3.1v2.5c1.2-1.7 3.5-3 6-3 2.9 0 4.9 1.1 6.3 3.4zm24.9-0.2q3-3.2 7.5-3.2 4.5 0 7.5 3.2 3.1 3.2 3.1 7.8 0 4.5-3 7.8c-2 2-4.6 3.1-7.6 3.1-3 0-5.5-1.1-7.5-3.1q-3-3.3-3-7.8 0-4.6 3-7.8zm7.5 15.8q3.2-0.1 5.3-2.3 2-2.3 2-5.7c0-2.3-0.7-4.2-2-5.7-1.4-1.6-3.2-2.3-5.3-2.3q-3.1 0-5.2 2.3c-1.4 1.5-2 3.4-2 5.7q-0.1 3.4 2 5.7c1.4 1.5 3.1 2.3 5.2 2.3zm25.8-0.1c4.1 0 6.1-2.9 6.1-8v-10.4h3.1v20.9h-3v-2.6q-2.4 3.1-6.6 3.1-7.9 0-7.9-9.2v-12.2h3.2v12.3c0 4 1.7 6.1 5.1 6.1zm20.9-18.4v2.8c1.8-2.3 3.7-3.1 6.8-3.1 0.3 0 0.7 0 1 0v3.1q-0.4-0.1-0.8-0.1c-4.9 0-6.9 2.5-6.9 9.3v8.9h-3.2v-20.9zm13.8 3.8q2.5-4.3 7.7-4.3c5.1 0 8.3 2.9 8.3 8.2v13.2h-3.1v-2.1c-1.6 1.7-3.7 2.6-6.5 2.6-4 0-7-2.2-7-6.4 0-4.1 3.1-6.5 7.7-6.5q2.3 0 5.7 1v-2.2c0-3.1-2.1-4.9-5.1-4.9-2.6 0-4.6 1.6-5.5 3.5zm6.6 14.7c2.5 0 4.9-1.4 6.2-3.3v-2.8c-2-0.7-3.9-1-5.5-1-3.2 0-4.8 1.5-4.8 3.7 0 2.1 1.7 3.4 4.1 3.4zm41.3-19.1q4.2 0 7 3.3v-11.8h3.2v30h-3v-2.9q-2.9 3.4-7.2 3.4c-2.9 0-5.2-1.1-7-3.2q-2.8-3.2-2.8-7.8c0-3.1 0.9-5.7 2.8-7.8q2.8-3.2 7-3.2zm0.3 19q3.1 0 5-2.3 1.9-2.2 1.9-5.7 0-3.5-1.9-5.7-1.9-2.3-5-2.3c-2.1 0-3.7 0.8-5 2.3q-1.8 2.2-1.8 5.7 0 3.5 1.8 5.7c1.3 1.5 2.9 2.3 5 2.3zm26.1 0c4.1 0 6.1-3 6.1-8.1v-10.4h3.1v21h-3v-2.7q-2.5 3.1-6.6 3.1-7.9 0-7.9-9.2v-12.2h3.2v12.3c0 4 1.7 6.2 5.1 6.2zm20.9-15.7q2.9-3.3 7.1-3.3c2.9 0 5.2 1.1 7 3.2q2.7 3.2 2.7 7.8c0 3.1-0.8 5.7-2.7 7.8-1.8 2.1-4.1 3.2-7 3.2-2.9 0-5.2-1.1-7.1-3.4v2.9h-3.1v-30h3.1zm6.8 15.7c2.1 0 3.7-0.7 5-2.2q1.8-2.3 1.8-5.8 0-3.5-1.8-5.7c-1.3-1.5-2.9-2.3-5-2.3-2.1 0-3.8 0.8-5 2.3q-1.9 2.2-1.8 5.7-0.1 3.5 1.8 5.8 1.8 2.2 5 2.2zm26.2-19q3.2 0 5.3 1.7c3 2.2 4 5.4 4 8.8v1.5h-15.6c0.3 4.4 2.9 7 7 7 2.4 0 4.3-1 6-3.1l2.2 2c-2.2 2.7-5.1 4.1-8.2 4.1-3.1 0-5.6-1-7.5-3-1.8-2-2.8-4.7-2.8-7.9q0-4.7 2.6-7.9 2.6-3.2 7-3.2zm0 3c-3.5 0-5.6 2.6-6.2 6.2h12.3c-0.3-3.7-2.5-6.2-6.1-6.2zm24.5 16c4.1 0 6.1-3 6.1-8.1v-10.4h3.2v21h-3.1v-2.7q-2.4 3.2-6.6 3.2-7.9-0.1-7.9-9.3v-12.2h3.2v12.4c0 3.9 1.7 6.1 5.1 6.1zm34.3-18.4l-7 10.1 7.6 10.8h-3.8l-5.8-8.5-5.6 8.5h-3.9l7.6-10.8-7-10.1h3.8l5.1 7.8 5.2-7.8z"/>
</svg>